<svg width="24" height="24" viewBox="0 0 24 24" fill="none" xmlns="http://www.w3.org/2000/svg">
<path d="M16.5 8.63C16.09 8.63 15.75 8.29 15.75 7.88V6.5C15.75 5.45 15.3 4.43 14.52 3.72C13.73 3 12.71 2.67 11.63 2.77C9.83 2.94 8.25 4.78 8.25 6.7V7.67C8.25 8.08 7.91 8.42 7.5 8.42C7.09 8.42 6.75 8.08 6.75 7.67V6.69C6.75 4 8.92 1.52 11.49 1.27C12.99 1.13 14.43 1.6 15.53 2.61C16.62 3.6 17.25 5.02 17.25 6.5V7.88C17.25 8.29 16.91 8.63 16.5 8.63Z" fill="#121212"/>
<path d="M15.0001 22.75H9.00006C4.38006 22.75 3.52006 20.6 3.30006 18.51L2.55006 12.52C2.44006 11.44 2.40006 9.89 3.45006 8.73C4.35006 7.73 5.84006 7.25 8.00006 7.25H16.0001C18.1701 7.25 19.6601 7.74 20.5501 8.73C21.5901 9.89 21.5601 11.44 21.4501 12.5L20.7001 18.51C20.4801 20.6 19.6201 22.75 15.0001 22.75ZM8.00006 8.75C6.31006 8.75 5.15006 9.08 4.56006 9.74C4.07006 10.28 3.91006 11.11 4.04006 12.35L4.79006 18.34C4.96006 19.94 5.40006 21.26 9.00006 21.26H15.0001C18.6001 21.26 19.0401 19.95 19.2101 18.36L19.9601 12.35C20.0901 11.13 19.9301 10.3 19.4401 9.75C18.8501 9.08 17.6901 8.75 16.0001 8.75H8.00006Z" fill="#121212"/>
<path d="M15.4199 13.15C14.8599 13.15 14.4099 12.7 14.4099 12.15C14.4099 11.6 14.8599 11.15 15.4099 11.15C15.9599 11.15 16.4099 11.6 16.4099 12.15C16.4099 12.7 15.9699 13.15 15.4199 13.15Z" fill="#121212"/>
<path d="M8.41991 13.15C7.85991 13.15 7.40991 12.7 7.40991 12.15C7.40991 11.6 7.85991 11.15 8.40991 11.15C8.95991 11.15 9.40991 11.6 9.40991 12.15C9.40991 12.7 8.96991 13.15 8.41991 13.15Z" fill="#121212"/>
</svg>
