<svg width="56" height="56" viewBox="0 0 56 56" fill="none" xmlns="http://www.w3.org/2000/svg">
<path d="M12.25 7.98438C10.746 7.98438 9.60155 8.51703 8.63544 9.43589C7.66933 10.3548 6.91223 11.689 6.40265 13.2175C5.75876 15.1492 5.53279 17.3808 5.64939 19.3547C5.73895 19.3459 5.8287 19.3391 5.91856 19.3342C6.83512 19.2899 7.70323 19.4539 8.48822 19.7973C10.0583 20.4842 11.2703 21.7956 12.2132 23.3279C13.8652 26.0123 14.7493 29.4252 14.9432 32.1419C27.4226 30.5863 28.5773 30.5863 41.0568 32.1419C41.2506 29.425 42.1347 26.0123 43.7867 23.3278C44.7295 21.7956 45.9416 20.4842 47.5117 19.7972C48.373 19.4205 49.335 19.2615 50.3505 19.3547C50.4671 17.3808 50.2411 15.1492 49.5972 13.2175C49.0877 11.6889 48.3305 10.3549 47.3645 9.43589C46.3984 8.51703 45.2539 7.98438 43.75 7.98438H12.25ZM6.23094 21.2737C6.1559 21.2728 6.08 21.2742 6.00322 21.278C5.38842 21.3091 4.71259 21.4944 3.94019 21.8806C1.37939 23.161 1.05826 29.0651 5.56112 30.566L6.05386 30.7303L9.49261 42.7656H46.5073L49.946 30.7303L50.4387 30.566C54.9416 29.0651 54.6205 23.161 52.0596 21.8806C50.5151 21.1083 49.3556 21.1396 48.3007 21.6011C47.2458 22.0627 46.2703 23.0482 45.4632 24.3596C43.849 26.9828 42.9843 30.8437 42.9843 33.25V34.3651L41.8778 34.2267C27.8778 32.4767 28.1221 32.4767 14.1221 34.2267L13.0156 34.3651V33.25C13.0156 30.8437 12.1509 26.9828 10.5367 24.3597C9.72951 23.0482 8.75411 22.0627 7.69919 21.6012C7.23762 21.3992 6.75594 21.2797 6.23094 21.2737ZM9.15759 44.7344L6.61222 47.2796C7.92406 47.6339 10.3036 47.6912 11.2656 47.0974C11.6235 46.5839 12.0206 45.5075 12.4072 44.7344H9.15759ZM43.5928 44.7344C43.7562 45.3925 44.3532 46.8256 44.7343 47.0974C46.1781 47.6949 48.0051 47.729 49.3877 47.2796L46.8423 44.7344H43.5928Z" fill="#49876E"/>
</svg>
